<svg width="23" height="23" xmlns="http://www.w3.org/2000/svg">

 <g>
  <title>background</title>
  <rect fill="none" id="canvas_background" height="402" width="582" y="-1" x="-1"/>
 </g>
 <g>
  <title>Layer 1</title>
  <path fill="#ffffff" id="svg_1" d="m20,2c0.542,0 1,0.458 1,1l0,17c0,0.542 -0.458,1 -1,1l-17,0c-0.542,0 -1,-0.458 -1,-1l0,-17c0,-0.542 0.458,-1 1,-1l17,0m0,-2l-17,0c-1.65,0 -3,1.35 -3,3l0,17c0,1.65 1.35,3 3,3l17,0c1.65,0 3,-1.35 3,-3l0,-17c0,-1.65 -1.35,-3 -3,-3l0,0z"/>
 </g>
</svg>