<?xml version="1.0" encoding="utf-8"?>
<!-- Generator: Adobe Illustrator 19.2.1, SVG Export Plug-In . SVG Version: 6.00 Build 0)  -->
<svg version="1.1" id="Слой_1" xmlns="http://www.w3.org/2000/svg" xmlns:xlink="http://www.w3.org/1999/xlink" x="0px" y="0px"
	 viewBox="0 0 115 41" style="enable-background:new 0 0 115 41;" xml:space="preserve">
<style type="text/css">
	.st0{fill:#231F20;}
</style>
<path class="st0" d="M47.9,29.8c-0.2,0.1-0.4,0.1-0.6,0.1c-0.4,0-0.6-0.2-0.6-0.7v-3.3c0-2.8-1.6-4.1-4.1-4.1
	c-1.4,0-2.7,0.4-3.4,0.6v1.9c0.8-0.4,1.9-0.7,3.2-0.7c1.5,0,2.3,0.8,2.3,2v0.3c-0.7-0.2-1.6-0.3-2.3-0.3c-1.9,0-4,0.7-4,3.1
	c0,1.9,1.5,2.8,3.1,2.8c1.4,0,2.5-0.5,3.4-1.2c0.3,0.8,1,1.1,1.8,1.1c0.4,0,0.9-0.1,1.3-0.2L47.9,29.8L47.9,29.8z M44.6,28.9
	C43.9,29.6,43,30,42.1,30c-0.9,0-1.7-0.5-1.7-1.4c0-1.2,1.2-1.5,2.3-1.5c0.6,0,1.4,0.1,1.9,0.2L44.6,28.9L44.6,28.9z M53.5,31.6
	c1.1,0,2.1-0.2,2.9-0.6v-1.9c-0.7,0.4-1.6,0.7-2.6,0.7c-1.6,0-3.1-0.9-3.1-3.1c0-2.2,1.6-3.1,3.2-3.1c0.9,0,1.8,0.3,2.5,0.8v-1.9
	c-0.8-0.5-1.7-0.7-2.7-0.7c-2.4,0-4.9,1.5-4.9,5C48.7,30.1,51.1,31.6,53.5,31.6L53.5,31.6z M61.6,25.7c-1.9,0-4,0.7-4,3.1
	c0,1.9,1.5,2.8,3.1,2.8c1.4,0,2.5-0.5,3.4-1.2c0.3,0.8,1,1.1,1.8,1.1c0.4,0,0.9-0.1,1.3-0.2v-1.5c-0.2,0.1-0.4,0.1-0.6,0.1
	c-0.4,0-0.6-0.2-0.6-0.7v-3.3c0-2.8-1.6-4.1-4.1-4.1c-1.4,0-2.7,0.4-3.4,0.6v1.9c0.8-0.4,1.9-0.7,3.2-0.7c1.5,0,2.3,0.8,2.3,2v0.3
	C63.2,25.8,62.4,25.7,61.6,25.7L61.6,25.7z M63.9,28.9c-0.7,0.7-1.6,1.1-2.6,1.1c-0.9,0-1.7-0.5-1.7-1.4c0-1.2,1.2-1.5,2.3-1.5
	c0.6,0,1.4,0.1,1.9,0.2L63.9,28.9L63.9,28.9z M68,26.7c0,2.7,1.7,4.9,4.4,4.9c1.7,0,2.7-0.8,3.4-1.7v1.5h1.8V17.8h-2v5.4
	c-0.6-0.7-1.6-1.4-3.2-1.4C69.7,21.8,68,24.1,68,26.7L68,26.7z M75.6,25.6v2.3c-0.4,1-1.4,2-2.8,2c-1.6,0-2.8-1.3-2.8-3.1
	c0-1.8,1.2-3.1,2.8-3.1C74.1,23.7,75.1,24.6,75.6,25.6L75.6,25.6z M84.5,31.6c1.2,0,2.4-0.2,3.2-0.6v-1.8c-0.8,0.4-1.7,0.7-2.8,0.7
	c-1.6,0-3.2-0.7-3.4-2.4h6.7c0.6-2.7-0.6-5.7-4.2-5.7c-2.1,0-4.5,1.5-4.5,4.9C79.5,30,81.8,31.6,84.5,31.6L84.5,31.6z M84.1,23.6
	c1.9,0,2.4,1.6,2.3,2.4h-4.9C81.6,24.4,82.8,23.6,84.1,23.6L84.1,23.6z M102.2,25.6v5.7h2v-5.8c0-1.9-1-3.7-3.4-3.7
	c-1.3,0-2.3,0.7-3.1,1.5c-0.5-0.9-1.4-1.5-2.8-1.5c-1.4,0-2.5,0.8-3,1.4v-1.2h-1.8v9.3h2v-6.3c0.5-0.6,1.3-1.4,2.4-1.4
	s1.8,0.8,1.8,2v5.7h2v-5.8c0-0.2,0-0.4,0-0.6c0.5-0.6,1.2-1.3,2.2-1.3C101.5,23.7,102.2,24.4,102.2,25.6L102.2,25.6z M115,22.1h-2.1
	l-2.6,7l-3-7h-2.1l4.2,9.3l-0.2,0.5c-0.5,1.4-1.2,2.2-2.2,2.2c-0.3,0-0.6,0-0.9-0.1v1.8c0.4,0.1,0.8,0.2,1.2,0.2
	c1.4,0,2.6-0.8,3.6-3.2L115,22.1L115,22.1z M41,9c0.5-0.8,1.4-1.5,2.5-1.5c1.2,0,2.1,0.7,2.1,2.2v5.5h2V9.4c0-2.2-1.4-3.8-3.7-3.8
	c-1.2,0-2.2,0.6-2.9,1.3V1.6h-2v13.5h2L41,9L41,9z M51,12.3c0,2.2,1.3,3.1,3.1,3.1c0.9,0,1.7-0.2,2.4-0.4v-1.8
	c-0.6,0.2-1.1,0.4-1.8,0.4c-1.1,0-1.7-0.4-1.7-1.6V7.7h3.2V5.9h-3.2V2.6l-2,0.5v2.8h-1.6v1.8H51L51,12.3L51,12.3z M60.7,8.9
	C61.1,8.3,62,7.4,63,7.4c1.1,0,1.8,0.8,1.8,2v5.7h2V9.3c0-0.2,0-0.4,0-0.6c0.5-0.6,1.2-1.3,2.2-1.3c1.1,0,1.8,0.8,1.8,2v5.7h2V9.3
	c0-1.9-1-3.7-3.4-3.7c-1.3,0-2.3,0.7-3.1,1.5c-0.5-0.9-1.4-1.5-2.8-1.5c-1.4,0-2.5,0.8-3,1.4V5.9h-1.8v9.3h2L60.7,8.9L60.7,8.9z
	 M75.6,1.6h2v13.5h-2V1.6z M15.5,0L0,1.7v29.7L15.5,41L31,31.4V1.7L15.7,0L15.5,0L15.5,0z M29,30.2l-13.5,8.4L2,30.2V18l13.4,8.3
	l0,1.5l-9.2-5.7l0,1.5l9.3,5.8l0,1.6l-9.2-5.7l0,1.5l9.3,5.8l9.3-5.8v-1.5l0,0v-4.8l4.2-2.6L29,30.2L29,30.2z M29,16.2l-3.7,2.3
	l-1.7,1l-8.1-5l0,1.5l6.9,4.3l-0.1,0l-0.1,0.1l-1,0.6l-5.7-3.6l0,1.5l4.5,2.8l-1.1,0.7l0,0l-3.4-2.1l0,1.5l2.2,1.4l-2.3,1.4
	L2.1,16.4L15.4,8v0L29,16.2L29,16.2z M29,14.7L15.5,6.4v0l0,0l0,0v0L2,14.7V3.6l13.5-1.5L29,3.6L29,14.7L29,14.7z"/>
</svg>
